# xmcd
# 
# Track frame offsets:
#     150
#     8071
#     15357
#     33194
#     54071
#     77827
#     83109
#     90867
#     120128
#     136891
#     156815
#     162269
#     172599
#     194668
#     205427
#     224548
#     235972
#     245678
# 
# Disc length: 3429
# 
# Revision: 5
# Processed by: cddbd v1.5.2PL0 Copyright (c) Steve Scherf et al.
# Submitted via: fre:ac v1.0.17
# 
DISCID=d20d6312
DTITLE=Ambra - Child Of The Universe Disc
DYEAR=2003
DGENRE=New Age
TTITLE0=Infinite Space Part 1
TTITLE1=Infinite Space Part 2
TTITLE2=The Rebirth Of The Sun
TTITLE3=La Renaissance Du Soleil
TTITLE4=Jewel Of Light
TTITLE5=Myth Of Creation Chapter 1
TTITLE6=Myth Of Creation Chapter 2
TTITLE7=Beyond The Horizon
TTITLE8=Liquid Sky
TTITLE9=Eclipse Of The Moon
TTITLE10=Introducing Salvador Dali
TTITLE11=The Devine Dali Part 1
TTITLE12=Elements Of "Etre Dieu"
TTITLE13=The Devine Dali Part 2
TTITLE14=Child Of The Universe Part 1
TTITLE15=Zodiacal Signs
TTITLE16=Child Of The Universe Part 2
TTITLE17=Infinte Space Part 3
EXTD=YEAR: 2003
EXTT0=
EXTT1=
EXTT2=
EXTT3=
EXTT4=
EXTT5=
EXTT6=
EXTT7=
EXTT8=
EXTT9=
EXTT10=
EXTT11=
EXTT12=
EXTT13=
EXTT14=
EXTT15=
EXTT16=
EXTT17=
PLAYORDER=
